<svg width="345" height="262" viewBox="0 0 345 262" fill="none" xmlns="http://www.w3.org/2000/svg">
<path d="M2.15063 89.8839C2.15063 86.155 2.31359 82.4077 3.51361 78.8287C9.4295 61.1848 20.4395 45.0243 33.6505 32.1847C46.1877 19.9999 61.1736 11.9409 77.5685 5.90964C82.9719 3.92186 88.5603 2.70974 94.3028 2.27505C98.9892 1.9203 105.384 1.18299 109.674 3.71374C122.1 11.0443 119.853 36.2016 116.337 47.7075C113.183 58.0307 106.615 67.4756 101.951 77.1628C98.1252 85.1078 94.2496 93.0239 90.3653 100.939C85.3684 111.121 82.4875 122.715 79.3101 133.575C76.9592 141.61 74.5362 150.397 75.2211 158.866C75.6534 164.209 78.4602 173.163 83.7776 175.751C94.8366 181.134 109.546 177.445 120.199 173.177C132.396 168.29 145.006 160.801 152.153 149.476C163.901 130.864 174.487 111.373 185.622 92.3827C189.058 86.5223 192.172 80.4739 195.693 74.6641C197.57 71.567 200.461 68.4255 201.523 64.8961C206.399 48.6974 213.214 36.3998 225.981 25.1427C234.572 17.5683 242.578 12.624 254.225 11.5887C260.79 11.0051 267.568 10.302 273.382 13.936C277.963 16.7989 282.135 20.5835 283.718 25.8999C287.222 37.664 289.851 50.5398 287.088 62.738C282.269 84.0069 269.291 100.123 256.08 116.689C250.709 123.424 244.674 130.243 240.747 137.967C236.826 145.677 231.97 153.241 228.821 161.289C223.515 174.848 221.881 189.312 221.627 203.768C221.363 218.821 216.234 234.531 219.204 249.503C220.885 257.976 233.145 261.294 240.595 259.082C247.946 256.9 255.576 253.111 261.608 248.481C272.377 240.213 283.135 231.882 293.978 223.72C301.703 217.906 310.309 213.303 317.944 207.365C324.779 202.049 331.794 195.734 337.366 189.078C339.813 186.155 341.964 182.878 342.894 179.159" stroke="black" stroke-width="3" stroke-linecap="round"/>
</svg>
