<svg width="320" height="243" viewBox="0 0 320 243" fill="none" xmlns="http://www.w3.org/2000/svg">
<path d="M45.6851 65.208H30.3251L20.2131 31.032V83H0.245117V0.824005H24.6931L38.0051 44.728L51.3171 0.824005H75.7651V83H55.9251V30.776L45.6851 65.208Z" fill="none"  stroke="black" stroke-width="3"/>
<path d="M150.754 163H128.226L125.666 150.712H105.954L103.266 163H81.2501L102.37 80.824H129.634L150.754 163ZM115.938 105.272L109.41 134.84H122.21L115.938 105.272Z" fill="none" stroke="black" stroke-width="3"/>
<path d="M156.245 0.824005H194.261C207.957 0.824005 213.077 7.096 213.077 16.696V37.944C213.077 45.496 210.005 50.872 202.069 52.92L217.173 83H193.109L180.053 53.816H178.645V83H156.245V0.824005ZM190.677 35.768V19.64C190.677 17.72 189.653 16.824 187.477 16.824H178.645V38.584H187.477C189.653 38.584 190.677 37.688 190.677 35.768Z" fill="none" stroke="black" stroke-width="3"/>
<path d="M222.308 80.824H244.708V163H222.308V80.824Z" fill="none" stroke="black" stroke-width="3"/>
<path d="M319.754 243H297.226L294.666 230.712H274.954L272.266 243H250.25L271.37 160.824H298.634L319.754 243ZM284.938 185.272L278.41 214.84H291.21L284.938 185.272Z" fill="none" stroke="black" stroke-width="3"/>
</svg>
