<svg width="41" height="40" viewBox="0 0 41 40" fill="inherit" xmlns="http://www.w3.org/2000/svg">
<path d="M0.5 0V40H40.5V0H0.5ZM22.2679 31.1964C22.2679 35.0893 19.9821 36.8661 16.6518 36.8661C13.6429 36.8661 11.9018 35.3125 11.0089 33.4286L14.0714 31.5804C14.6607 32.625 15.1964 33.5089 16.4911 33.5089C17.7232 33.5089 18.5089 33.0268 18.5089 31.1429V18.3661H22.2679V31.1964ZM31.1607 36.8661C27.6696 36.8661 25.4107 35.2054 24.3125 33.0268L27.375 31.2589C28.1786 32.5714 29.2321 33.5446 31.0804 33.5446C32.6339 33.5446 33.6339 32.7679 33.6339 31.6875C33.6339 30.4018 32.6161 29.9464 30.8929 29.1875L29.9554 28.7857C27.2411 27.6339 25.4464 26.1786 25.4464 23.1161C25.4464 20.2946 27.5982 18.1518 30.9464 18.1518C33.3393 18.1518 35.0536 18.9821 36.2857 21.1607L33.3571 23.0357C32.7143 21.8839 32.0179 21.4286 30.9375 21.4286C29.8393 21.4286 29.1429 22.125 29.1429 23.0357C29.1429 24.1607 29.8393 24.6161 31.4554 25.3214L32.3929 25.7232C35.5893 27.0893 37.3839 28.4911 37.3839 31.6339C37.3839 35.0089 34.7232 36.8661 31.1607 36.8661Z" fill="inherit"/>
</svg>
