<svg width="41" height="16" viewBox="0 0 41 16" fill="inherit" xmlns="http://www.w3.org/2000/svg">
<path d="M15.27 0.5L7.36669 15.4867H0.166687L6.33835 3.785C7.29502 1.97 9.68169 0.5 11.67 0.5H15.27ZM32.9267 4.24667C32.9267 2.17667 34.5384 0.5 36.5267 0.5C38.515 0.5 40.1267 2.17667 40.1267 4.24667C40.1267 6.31667 38.515 7.99333 36.5267 7.99333C34.5384 7.99333 32.9267 6.31667 32.9267 4.24667ZM16.62 0.5H23.82L15.9167 15.4867H8.71669L16.62 0.5ZM25.1234 0.5H32.3234L26.1534 12.2017C25.1967 14.0167 22.8084 15.4867 20.82 15.4867H17.22L25.1234 0.5Z" fill="inherit"/>
</svg>
