<svg width="46" height="40" viewBox="0 0 46 40" fill="inherit" xmlns="http://www.w3.org/2000/svg">
<path d="M37.2559 12.9625C36.7812 12.8018 36.3066 12.65 35.832 12.5071C35.9111 12.1768 35.9814 11.8465 36.0518 11.5161C37.1328 6.19498 36.4209 1.91842 34.0215 0.507785C31.71 -0.840357 27.9395 0.561353 24.125 3.93617C23.7471 4.26651 23.3779 4.61471 23.0264 4.9629C22.7891 4.73077 22.543 4.49864 22.2969 4.27544C18.2979 0.668491 14.29 -0.849285 11.8906 0.570282C9.58789 1.92735 8.90234 5.95392 9.86914 10.9894C9.96582 11.4893 10.0713 11.9804 10.1943 12.4804C9.63184 12.6411 9.07812 12.8196 8.55957 13.0071C3.86621 14.6588 0.5 17.2658 0.5 19.9621C0.5 22.7477 4.08594 25.5422 8.96387 27.2385C9.35938 27.3724 9.75488 27.5063 10.1592 27.6224C10.0273 28.1581 9.91309 28.6849 9.80762 29.2295C8.88477 34.1846 9.60547 38.1129 11.9082 39.4611C14.2812 40.8538 18.2715 39.4253 22.1562 35.9702C22.4639 35.6934 22.7715 35.4077 23.0791 35.1042C23.4658 35.4881 23.8701 35.8541 24.2744 36.2112C28.0361 39.4968 31.7539 40.8271 34.0479 39.4789C36.4209 38.0861 37.1943 33.8631 36.1924 28.7206C36.1133 28.3277 36.0254 27.926 35.9287 27.5153C36.21 27.4349 36.4824 27.3456 36.7549 27.2564C41.8262 25.5511 45.5 22.7923 45.5 19.9621C45.5 17.2569 42.0371 14.632 37.2559 12.9625ZM25.3643 5.38252C28.6338 2.48982 31.6836 1.35595 33.0723 2.16841C34.5576 3.03444 35.1289 6.53425 34.1973 11.1322C34.1357 11.4358 34.0742 11.7304 33.9951 12.025C32.0439 11.5786 30.0664 11.2572 28.0801 11.0786C26.9375 9.41802 25.6895 7.82882 24.3359 6.33783C24.6787 6.00749 25.0127 5.69501 25.3643 5.38252ZM15.1953 24.5958C15.6436 25.3725 16.1006 26.1493 16.584 26.9082C15.2129 26.7564 13.8506 26.5332 12.5059 26.2386C12.8926 24.9529 13.376 23.6226 13.9385 22.2656C14.3428 23.0512 14.7559 23.828 15.1953 24.5958ZM12.5322 13.8553C13.7979 13.5696 15.1426 13.3375 16.54 13.1589C16.0742 13.8999 15.6172 14.6588 15.1865 15.4266C14.7559 16.1855 14.334 16.9623 13.9385 17.7479C13.3848 16.4177 12.9189 15.1141 12.5322 13.8553ZM14.9404 20.0067C15.5205 18.7747 16.1533 17.5694 16.8213 16.3819C17.4893 15.1945 18.21 14.0428 18.9658 12.9089C20.2842 12.8107 21.6289 12.7571 23 12.7571C24.3711 12.7571 25.7246 12.8107 27.0342 12.9089C27.7812 14.0338 28.4932 15.1856 29.1699 16.3641C29.8467 17.5426 30.4795 18.7479 31.0771 19.971C30.4883 21.2031 29.8555 22.4173 29.1787 23.6137C28.5107 24.8011 27.7988 25.9529 27.0518 27.0956C25.7422 27.1939 24.3799 27.2385 23 27.2385C21.6201 27.2385 20.2842 27.1939 18.9922 27.1135C18.2275 25.9796 17.5068 24.819 16.8301 23.6316C16.1533 22.4441 15.5293 21.2388 14.9404 20.0067ZM30.8135 24.5779C31.2617 23.7923 31.6836 22.9977 32.0967 22.1941C32.6592 23.4887 33.1514 24.8011 33.582 26.1493C32.2197 26.4618 30.8398 26.7028 29.4512 26.8635C29.9258 26.1136 30.374 25.3457 30.8135 24.5779ZM32.0791 17.7479C31.666 16.9623 31.2441 16.1766 30.8047 15.4088C30.374 14.6499 29.9258 13.8999 29.46 13.1589C30.875 13.3375 32.2285 13.5785 33.4941 13.8731C33.0898 15.1945 32.6152 16.4801 32.0791 17.7479ZM23.0176 7.70383C23.9404 8.72163 24.8105 9.793 25.6191 10.9001C23.8789 10.8197 22.1299 10.8197 20.3896 10.9001C21.251 9.74836 22.1387 8.67699 23.0176 7.70383ZM12.8223 2.23091C14.2988 1.35595 17.5771 2.60589 21.0312 5.71286C21.251 5.90928 21.4707 6.12356 21.6992 6.33783C20.3369 7.82882 19.0801 9.41802 17.9287 11.0786C15.9424 11.2572 13.9736 11.5697 12.0225 12.0072C11.9082 11.5518 11.8115 11.0876 11.7148 10.6233C10.8887 6.30212 11.4336 3.04336 12.8223 2.23091ZM10.6689 25.7654C10.2998 25.6582 9.93945 25.5422 9.5791 25.4172C7.70703 24.819 5.58008 23.8726 4.04199 22.6316C3.1543 22.0066 2.55664 21.0424 2.38965 19.9621C2.38965 18.3283 5.16699 16.2391 9.1748 14.8195C9.67578 14.641 10.1855 14.4803 10.6953 14.3285C11.293 16.2659 12.0137 18.1676 12.8486 20.0067C12.0049 21.8727 11.2754 23.8012 10.6689 25.7654ZM20.917 34.5149C19.4668 35.863 17.7881 36.9344 15.96 37.6665C14.9844 38.1397 13.8594 38.1843 12.8574 37.7826C11.46 36.9612 10.8799 33.8096 11.6709 29.5687C11.7676 29.0688 11.873 28.5688 11.9961 28.0777C13.9648 28.5063 15.9512 28.8009 17.9639 28.9527C19.124 30.6222 20.3984 32.2204 21.7607 33.7203C21.4795 33.9971 21.1982 34.2649 20.917 34.5149ZM23.0703 32.3454C22.1738 31.3633 21.2773 30.2741 20.4072 29.1045C21.251 29.1402 22.1211 29.158 23 29.158C23.9053 29.158 24.793 29.1402 25.6719 29.0955C24.8633 30.2294 23.9932 31.3097 23.0703 32.3454ZM34.5576 35.0238C34.4785 36.113 33.9512 37.1308 33.1074 37.8183C31.71 38.6397 28.7305 37.5683 25.5137 34.7649C25.1445 34.4435 24.7754 34.0953 24.3975 33.7382C25.7422 32.2293 26.9814 30.6312 28.1064 28.9527C30.1191 28.7831 32.123 28.4706 34.1006 28.0152C34.1885 28.3813 34.2676 28.7473 34.3379 29.1045C34.7686 31.0329 34.8389 33.0418 34.5576 35.0238ZM36.1572 25.4261C35.9111 25.5064 35.665 25.5868 35.4102 25.6582C34.7949 23.7119 34.0391 21.8102 33.1689 19.9621C34.0127 18.1408 34.7246 16.2659 35.3223 14.3463C35.7793 14.4803 36.2187 14.6231 36.6406 14.766C40.7363 16.1944 43.6104 18.3193 43.6104 19.9442C43.6104 21.6942 40.543 23.953 36.1572 25.4261ZM23 24.0869C25.2236 24.0869 27.0254 22.2566 27.0254 19.9978C27.0254 17.739 25.2236 15.9087 23 15.9087C20.7764 15.9087 18.9746 17.739 18.9746 19.9978C18.9746 22.2566 20.7764 24.0869 23 24.0869Z" fill="inherit"/>
</svg>
