<svg width="40" height="38" viewBox="0 0 40 38" fill="inherit" xmlns="http://www.w3.org/2000/svg">
<path d="M27.7233 26.5194C29.1717 26.3941 30.2952 25.1168 30.2218 23.5908C30.1452 22.0647 28.8967 20.8391 27.3749 20.8391H27.2733C25.7015 20.8909 24.4764 22.215 24.5264 23.7928C24.5764 24.5926 24.9031 25.2437 25.3498 25.7179C23.603 29.1207 20.9811 31.6219 17.0091 33.724C14.3373 35.1232 11.5154 35.6508 8.76851 35.2751C6.47166 34.9512 4.67486 33.9227 3.57477 32.273C1.92798 29.7702 1.77797 27.0703 3.14974 24.3688C4.15149 22.417 5.64827 20.9911 6.64834 20.2898C6.39833 19.6403 6.0983 18.54 5.94829 17.7152C-1.44561 23.0197 -0.693888 30.2728 1.55295 33.7006C3.22641 36.2018 6.64834 37.8013 10.3936 37.8013C11.392 37.8013 12.4421 37.7278 13.4655 37.4774C19.9594 36.2268 24.8781 32.3248 27.7 26.5711L27.7233 26.5194ZM36.6373 20.2648C32.7687 15.7116 27.0733 13.2104 20.5794 13.2104H19.7294C19.3077 12.2854 18.3342 11.7094 17.2342 11.7094H17.1592C15.5874 11.7094 14.3623 13.0618 14.4139 14.6363C14.4639 16.1357 15.7374 17.3879 17.2608 17.3879H17.3842C18.5093 17.3378 19.4827 16.6366 19.881 15.6365H20.8061C24.6547 15.6365 28.2983 16.7618 31.6203 18.9624C34.1655 20.6388 35.9906 22.8394 37.014 25.4675C37.9108 27.618 37.8624 29.7201 36.939 31.4733C35.5156 34.2232 33.1171 35.6758 29.9468 35.6758C27.9483 35.6758 26.0015 35.0497 25.0014 34.6006C24.403 35.0981 23.403 35.9246 22.6779 36.4255C24.8748 37.424 27.0983 38 29.2451 38C34.1155 38 37.7341 35.2501 39.1092 32.597C40.606 29.5949 40.4826 24.5425 36.6607 20.2147L36.6373 20.2648ZM10.817 27.4176C10.8653 28.9187 12.1388 30.1693 13.6639 30.1693H13.7639C15.3624 30.1192 16.5858 28.7951 16.5108 27.2173C16.5108 25.7162 15.2123 24.4673 13.6889 24.4673H13.5872C13.4872 24.4673 13.3389 24.4673 13.2122 24.5158C11.1404 21.0128 10.2653 17.2594 10.592 13.2104C10.7903 10.1583 11.7904 7.50516 13.5872 5.30454C15.0857 3.42783 17.9075 2.50116 19.831 2.45274C25.2248 2.35089 27.4733 9.083 27.6466 11.7595L30.1435 12.5092C29.5684 4.30441 24.4764 0 19.606 0C15.0357 0 10.817 3.32765 9.11687 8.20642C6.79502 14.7115 8.31847 20.9644 11.1654 25.9684C10.917 26.294 10.767 26.8683 10.817 27.4176Z" fill="inherit"/>
</svg>
