<svg width="41" height="40" viewBox="0 0 41 40" fill="inherit" xmlns="http://www.w3.org/2000/svg">
<path d="M34.0992 2.41276C34.7615 2.88965 35.329 3.48972 35.4667 4.33333C35.5403 5.32584 35.3639 6.0144 34.7333 6.8C34.5785 6.97202 34.4161 7.13553 34.252 7.29867C34.2048 7.3461 34.1577 7.39354 34.109 7.44241C33.9513 7.60087 33.793 7.75885 33.6348 7.91684C33.5203 8.03166 33.4058 8.1465 33.2913 8.26137C33.0426 8.51086 32.7936 8.76014 32.5445 9.00923C32.174 9.37965 31.8039 9.75045 31.4339 10.1213C30.696 10.8608 29.9576 11.5998 29.2191 12.3387C29.1809 12.3769 29.1427 12.4151 29.1033 12.4545C29.065 12.4928 29.0267 12.5312 28.9872 12.5706C28.5625 12.9956 28.1379 13.4206 27.7133 13.8457C26.4306 15.1297 25.1478 16.4136 23.8645 17.6971C23.8234 17.7381 23.7824 17.7792 23.7402 17.8214C23.5739 17.9877 23.4077 18.154 23.2414 18.3203C23.1163 18.4454 22.9911 18.5706 22.866 18.6957C22.8247 18.7371 22.7833 18.7784 22.7407 18.821C21.4413 20.1207 20.1425 21.4209 18.8441 22.7217C17.3851 24.1834 15.9255 25.6446 14.4652 27.1049C14.3095 27.2607 14.1537 27.4164 13.998 27.5722C13.9405 27.6297 13.9405 27.6297 13.8818 27.6884C13.265 28.3052 12.6488 28.9227 12.0327 29.5403C11.4135 30.161 10.7937 30.7811 10.1733 31.4005C9.8048 31.7684 9.43681 32.1368 9.06948 32.5058C8.795 32.7815 8.51966 33.0563 8.24397 33.3307C8.13269 33.4418 8.02169 33.5531 7.911 33.6647C6.84993 34.7343 6.84993 34.7343 6.20001 35C6.13014 35.0297 6.06028 35.0595 5.98829 35.0901C5.14986 35.2826 4.34754 35.1304 3.62084 34.6875C3.02984 34.2667 2.54644 33.6641 2.37918 32.95C2.22714 32.0086 2.35063 31.2252 2.9105 30.4475C3.2656 29.9947 3.69726 29.5998 4.10451 29.195C4.21889 29.0803 4.33321 28.9655 4.44747 28.8507C4.69543 28.6019 4.9438 28.3535 5.19254 28.1054C5.56244 27.7365 5.93156 27.3669 6.30054 26.9971C6.95966 26.3366 7.61954 25.6768 8.27975 25.0174C8.85747 24.4403 9.43495 23.863 10.0122 23.2855C10.0505 23.2471 10.0888 23.2088 10.1283 23.1693C10.2839 23.0137 10.4394 22.858 10.595 22.7024C12.0535 21.243 13.5128 19.7844 14.9725 18.3262C16.2689 17.0311 17.5646 15.7352 18.8597 14.4389C20.3154 12.9817 21.7716 11.525 23.2284 10.069C23.3838 9.91374 23.5391 9.75849 23.6944 9.60324C23.7327 9.56502 23.7709 9.52679 23.8103 9.48741C24.3875 8.91054 24.9643 8.33334 25.541 7.75598C26.1968 7.09945 26.853 6.4434 27.5099 5.78798C27.8774 5.42129 28.2445 5.05425 28.611 4.68666C28.8849 4.41215 29.1594 4.13834 29.4342 3.8648C29.5452 3.7541 29.656 3.64317 29.7665 3.532C29.9169 3.38081 30.0681 3.23046 30.2195 3.08029C30.2621 3.03706 30.3047 2.99383 30.3486 2.94928C31.3508 1.9634 32.8707 1.60852 34.0992 2.41276Z" fill="inherit"/>
<path d="M35.3625 17.8417C35.4155 17.8409 35.4685 17.8401 35.5231 17.8393C36.3126 17.8432 37.0212 18.1835 37.5927 18.7156C38.1544 19.3188 38.375 20.034 38.3521 20.8466C38.2677 21.8375 37.8156 22.492 37.1237 23.1777C37.0326 23.2696 37.0326 23.2696 36.9396 23.3634C36.7724 23.532 36.6044 23.6997 36.4362 23.8674C36.2544 24.0488 36.0733 24.2311 35.8922 24.4132C35.5377 24.7694 35.1826 25.1248 34.8271 25.4799C34.5381 25.7687 34.2493 26.0577 33.9607 26.3469C33.9195 26.3882 33.8783 26.4294 33.8359 26.4719C33.7523 26.5557 33.6687 26.6395 33.585 26.7233C32.8017 27.5081 32.0174 28.292 31.2329 29.0757C30.5161 29.7919 29.8004 30.5091 29.0851 31.2269C28.3497 31.9649 27.6136 32.7021 26.8766 33.4386C26.4633 33.8517 26.0502 34.265 25.638 34.6792C25.2871 35.0317 24.9354 35.3835 24.5829 35.7344C24.4033 35.9133 24.2239 36.0924 24.0455 36.2725C23.8516 36.4681 23.6561 36.6622 23.4605 36.8561C23.405 36.9126 23.3495 36.9691 23.2923 37.0273C22.6313 37.6764 21.8894 37.994 20.9709 38.0208C20.1795 38.0043 19.5398 37.7221 18.9654 37.1727C18.3113 36.4361 18.1294 35.6488 18.1724 34.6911C18.2437 33.7563 18.9123 33.1342 19.5452 32.5041C19.6355 32.4134 19.6355 32.4134 19.7276 32.3209C19.8932 32.1547 20.0592 31.9888 20.2253 31.823C20.4049 31.6435 20.5842 31.4637 20.7634 31.2839C21.1141 30.9324 21.4651 30.5813 21.8163 30.2303C22.1018 29.9449 22.3871 29.6595 22.6724 29.3739C22.7334 29.3128 22.7334 29.3128 22.7956 29.2505C22.8783 29.1678 22.9609 29.0851 23.0435 29.0024C23.8175 28.2277 24.5918 27.4535 25.3663 26.6794C26.0745 25.9716 26.7821 25.2632 27.4894 24.5546C28.2165 23.8263 28.9439 23.0983 29.6718 22.3707C30.0801 21.9625 30.4882 21.5542 30.896 21.1455C31.243 20.7977 31.5904 20.4502 31.9382 20.1032C32.1155 19.9263 32.2927 19.7492 32.4694 19.5717C32.6612 19.379 32.8537 19.1872 33.0464 18.9954C33.1018 18.9394 33.1573 18.8835 33.2144 18.8258C33.8465 18.1996 34.4601 17.8286 35.3625 17.8417Z" fill="inherit"/>
</svg>
