<svg width="41" height="24" viewBox="0 0 41 24" fill="inherit" xmlns="http://www.w3.org/2000/svg">
<path fill-rule="evenodd" clip-rule="evenodd" d="M20.5 0C15.166 0 11.834 2.666 10.5 8C12.5 5.334 14.834 4.334 17.5 5C19.022 5.38028 20.11 6.48491 21.312 7.70624C23.274 9.69618 25.544 12 30.5 12C35.834 12 39.166 9.334 40.5 4C38.5 6.666 36.168 7.666 33.5 7C31.978 6.61972 30.89 5.51509 29.686 4.29376C27.726 2.30181 25.458 0 20.5 0ZM10.5 12C5.166 12 1.834 14.666 0.5 20C2.5 17.332 4.834 16.334 7.5 17C9.022 17.3803 10.11 18.4849 11.314 19.7062C13.274 21.6962 15.544 24 20.502 24C25.836 24 29.168 21.334 30.502 16C28.502 18.666 26.168 19.666 23.502 19C21.98 18.6197 20.892 17.5151 19.69 16.2938C17.726 14.3038 15.456 12 10.5 12Z" fill="inherit"/>
</svg>
